<svg xmlns:xlink="http://www.w3.org/1999/xlink" width="14" height="14" viewBox="0 0 14 14" fill="none" xmlns="http://www.w3.org/2000/svg">
<path d="M13.7499 3.43194V13.1819C13.7499 13.3808 13.6709 13.5716 13.5303 13.7123C13.3896 13.8529 13.1988 13.9319 12.9999 13.9319H3.24993C3.05102 13.9319 2.86025 13.8529 2.7196 13.7123C2.57895 13.5716 2.49993 13.3808 2.49993 13.1819C2.49993 12.983 2.57895 12.7923 2.7196 12.6516C2.86025 12.511 3.05102 12.4319 3.24993 12.4319H11.1896L0.469304 1.71256C0.328573 1.57183 0.249512 1.38096 0.249512 1.18194C0.249512 0.982913 0.328573 0.792041 0.469304 0.651311C0.610034 0.51058 0.800906 0.431519 0.999929 0.431519C1.19895 0.431519 1.38982 0.51058 1.53055 0.651311L12.2499 11.3716V3.43194C12.2499 3.23302 12.3289 3.04226 12.4696 2.90161C12.6103 2.76095 12.801 2.68194 12.9999 2.68194C13.1988 2.68194 13.3896 2.76095 13.5303 2.90161C13.6709 3.04226 13.7499 3.23302 13.7499 3.43194Z" fill="#93A9BD"></path>
</svg>