<svg xmlns:xlink="http://www.w3.org/1999/xlink" xmlns="http://www.w3.org/2000/svg" role="presentation" fill="none" focusable="false" stroke-width="2" width="24" height="24" class="sm:hidden icon icon-picto-return" viewBox="0 0 24 24">
        <path d="M2.04 17.208a5.362 5.362 0 0 0 4.721 4.731c1.706.189 3.456.347 5.24.347 1.782 0 3.532-.158 5.238-.347a5.362 5.362 0 0 0 4.72-4.731c.18-1.697.327-3.435.327-5.208 0-1.773-.148-3.513-.326-5.208a5.362 5.362 0 0 0-4.721-4.731c-1.706-.189-3.456-.347-5.239-.347s-3.533.158-5.239.347a5.362 5.362 0 0 0-4.72 4.731c-.18 1.697-.327 3.435-.327 5.208 0 1.773.148 3.513.326 5.208Z" fill="#FFFFFF" fill-opacity="0.12" stroke="#FFFFFF" stroke-width="2px"></path>
        <path d="M6.857 13.977h5.907a3.429 3.429 0 0 0 3.429-3.429V7.293M10.2 10.635c-1.468 1.2-2.2 1.934-3.343 3.343C8 15.384 8.732 16.118 10.2 17.32" stroke="#FFFFFF" stroke-linecap="round" stroke-linejoin="round" fill="none" stroke-width="2px"></path>
      </svg>