<svg xmlns:xlink="http://www.w3.org/1999/xlink" xmlns="http://www.w3.org/2000/svg" height="18" width="18" class="trustpilot__stars__item" viewBox="0 0 30 30"><path d="M15 30H2c-1.1 0-2-.9-2-2V2C0 .9.9 0 2 0h13" fill="#579F78"></path><path d="M15 0h13c1.1 0 2 .9 2 2v26c0 1.1-.9 2-2 2H15" fill="#B5B5B5"></path><path d="M24.4 12.7c-.2-.5-.6-.9-1.1-1l-4.9-.7-2.1-4.3c-.4-.7-1.3-.9-2-.5-.2.1-.4.3-.5.5l-2.2 4.4-4.8.7c-.8.1-1.3.8-1.2 1.6 0 .3.2.6.4.8l3.5 3.4-.8 4.8c-.1.8.4 1.5 1.2 1.6.3.1.6 0 .9-.1l4.3-2.3 4.3 2.2c.7.4 1.5.1 1.9-.6.1-.3.2-.6.1-.9l-.8-4.8 3.5-3.4c.3-.3.4-.9.3-1.4z" fill="#FFFFFF"></path></svg>