<svg xmlns:xlink="http://www.w3.org/1999/xlink" xmlns="http://www.w3.org/2000/svg" role="presentation" stroke-width="1" focusable="false" width="32" height="32" class="icon icon-cart" viewBox="0 0 22 22">
            <path d="M9.182 18.454a.91.91 0 1 1-1.818 0 .91.91 0 0 1 1.818 0Zm7.272 0a.91.91 0 1 1-1.818 0 .91.91 0 0 1 1.819 0Z" fill="#304A4B"></path>
            <path d="M5.336 6.636H21l-3.636 8.182H6.909L4.636 3H1m8.182 15.454a.91.91 0 1 1-1.818 0 .91.91 0 0 1 1.818 0Zm7.272 0a.91.91 0 1 1-1.818 0 .91.91 0 0 1 1.819 0Z" fill="none" stroke="#304A4B" stroke-linecap="round" stroke-linejoin="round"></path>
          </svg>