<svg xmlns:xlink="http://www.w3.org/1999/xlink" xmlns="http://www.w3.org/2000/svg" role="presentation" fill="none" focusable="false" stroke-width="2" width="32" height="32" class="hidden sm:block icon icon-picto-star" viewBox="0 0 24 24">
        <path d="M11.206 1.934a.857.857 0 0 1 1.588 0l2.468 6.019 6.647.582a.857.857 0 0 1 .47 1.516l-4.535 3.723a.857.857 0 0 0-.291.844l1.416 6.565a.857.857 0 0 1-1.314.892L12 18.295l-5.655 3.78a.857.857 0 0 1-1.314-.892l1.418-6.565a.857.857 0 0 0-.295-.844l-4.532-3.723a.857.857 0 0 1 .47-1.516l6.647-.582 2.469-6.02h-.002Z" fill="#FFFFFF" fill-opacity="0.12" stroke="#FFFFFF" stroke-linejoin="round" stroke-width="2px"></path>
      </svg>