<svg xmlns:xlink="http://www.w3.org/1999/xlink" width="100" height="17" viewBox="0 0 100 17" fill="#000" xmlns="http://www.w3.org/2000/svg">
                            <path d="M18.9289 12.3114H14.8541C13.7002 12.3114 12.7646 11.376 12.7646 10.2219V6.14708C12.7646 4.99339 13.7 4.05804 14.8541 4.05804H18.9289C20.0828 4.05804 21.0183 4.99339 21.0183 6.14708V10.2219C21.0183 11.3758 20.0828 12.3114 18.9289 12.3114Z"></path>
                            <path d="M8.25358 11.3076V5.19947C8.25358 4.60694 8.73372 4.12661 9.32605 4.12661H13.2055C14.1726 4.12661 14.6475 2.94584 13.9473 2.27871C12.4948 0.893807 10.5372 0.0330645 8.37941 0.000925489C3.6162 -0.0699752 -0.241068 3.94254 0.0117592 8.69912C0.243355 13.0504 3.84488 16.507 8.25358 16.507C10.4589 16.507 12.4622 15.6419 13.9428 14.2325C14.6454 13.5636 14.1757 12.3803 13.2055 12.3803H9.32605C8.73372 12.3803 8.25358 11.9 8.25358 11.3076Z"></path>
                            <path d="M33.8149 7.77002C33.6791 7.77002 33.5617 7.68115 33.5264 7.55393C33.2878 6.6908 32.6005 6.2075 31.6072 6.2075C30.1536 6.2075 29.3708 7.27089 29.3708 9.18097C29.3708 11.1994 30.1536 12.2628 31.6297 12.2628C32.6955 12.2628 33.3121 11.7697 33.5891 10.6954C33.6238 10.5603 33.7516 10.4665 33.8946 10.4738L36.3836 10.5968C36.568 10.6059 36.7013 10.7739 36.6624 10.9486C36.1176 13.387 34.2793 14.7584 31.5402 14.7584C28.2532 14.7584 26.1733 12.6317 26.1733 9.26741C26.1733 5.79541 28.2307 3.71185 31.6516 3.71185C34.3426 3.71185 36.2174 5.13681 36.5558 7.43889C36.582 7.61358 36.4402 7.77002 36.2582 7.77002H33.8149Z"></path>
                            <path d="M48.4575 9.31062C48.4575 12.0406 46.6643 14.1108 44.0372 14.6312C39.2839 15.5729 36.0761 12.4405 37.1395 7.84671C37.7147 5.36142 39.8561 3.71185 42.7108 3.71185C46.1323 3.71124 48.4575 5.96828 48.4575 9.31062ZM40.1835 9.22358C40.1835 11.1988 41.1002 12.3054 42.7328 12.3054C44.3202 12.3054 45.2594 11.1988 45.2594 9.28871C45.2594 7.27028 44.3653 6.16367 42.7102 6.16367C41.1002 6.16367 40.1835 7.27089 40.1835 9.22358Z"></path>
                            <path d="M52.2041 4.28409V4.37296C52.2041 4.61826 52.4987 4.75217 52.6947 4.59696C53.5773 3.89391 54.2049 3.69 55.1557 3.69C57.504 3.69 58.9351 5.2093 58.9351 7.68365V14.1857C58.9351 14.3464 58.8005 14.4767 58.635 14.4767H56.059C55.8934 14.4767 55.7595 14.3464 55.7595 14.1857V8.76834C55.7595 7.70495 55.6919 7.29286 55.4241 6.90208C55.1557 6.5113 54.6864 6.29461 54.127 6.29461C53.5901 6.29461 53.0983 6.48939 52.7629 6.85887C52.405 7.24965 52.2936 7.68365 52.2936 8.59486V14.1857C52.2936 14.3464 52.1591 14.4767 51.9941 14.4767H49.4175C49.252 14.4767 49.1174 14.3464 49.1174 14.1857V4.28409C49.1174 4.12339 49.252 3.99313 49.4175 3.99313H51.9046C52.0702 3.99374 52.2041 4.124 52.2041 4.28409Z"></path>
                            <path d="M65.4803 6.29395H64.1339C63.9683 6.29395 63.8338 6.42421 63.8338 6.5849V10.374C63.8338 12.0236 63.9013 12.1532 64.6391 12.1532H65.4797C65.6452 12.1532 65.7792 12.2835 65.7792 12.4442V14.1851C65.7792 14.3458 65.6452 14.476 65.4797 14.476H63.8338C62.4478 14.476 61.7539 14.2806 61.2846 13.7815C60.7927 13.2605 60.6582 12.6962 60.6582 11.0685V6.5849C60.6582 6.42421 60.5243 6.29395 60.3587 6.29395H59.4372C59.2716 6.29395 59.1377 6.16369 59.1377 6.00299V4.4143C59.1377 4.25361 59.2716 4.12334 59.4372 4.12334H60.3587C60.5243 4.12334 60.6582 3.99308 60.6582 3.83239V1.09387C60.6582 0.933178 60.7927 0.802917 60.9583 0.802917H63.5343C63.6999 0.802917 63.8338 0.933178 63.8338 1.09387V3.83239C63.8338 3.99308 63.9683 4.12334 64.1339 4.12334H65.4803C65.6459 4.12334 65.7798 4.25361 65.7798 4.4143V6.00299C65.7798 6.16369 65.6459 6.29395 65.4803 6.29395Z"></path>
                            <path d="M69.4222 4.29804L69.4119 4.51291C69.3979 4.80143 69.7735 4.92622 69.9536 4.69674C70.513 3.98457 71.3214 3.7283 72.7774 3.71126C72.9441 3.70944 73.0817 3.84091 73.0817 4.00222V6.29821C73.0817 6.46682 72.9344 6.60073 72.7615 6.58856C72.5838 6.57578 72.4548 6.57578 72.2764 6.57578C71.1802 6.57578 70.286 7.05299 69.9281 7.83456C69.6152 8.52908 69.5032 9.50542 69.5032 11.5239V14.1851C69.5032 14.3458 69.3693 14.476 69.2037 14.476H66.6271C66.4616 14.476 66.3276 14.3458 66.3276 14.1851V4.28404C66.3276 4.12335 66.4616 3.99309 66.6271 3.99309H69.1222C69.2944 3.9937 69.4302 4.13187 69.4222 4.29804Z"></path>
                            <path d="M74.0124 2.53953H76.5884C76.7539 2.53953 76.8878 2.40927 76.8878 2.24858V0.291017C76.8878 0.130322 76.7539 6.10352e-05 76.5884 6.10352e-05H74.0124C73.8468 6.10352e-05 73.7129 0.130322 73.7129 0.291017V2.24858C73.7129 2.40927 73.8468 2.53953 74.0124 2.53953ZM74.0124 14.476H76.5884C76.7539 14.476 76.8878 14.3458 76.8878 14.1851V4.28405C76.8878 4.12336 76.7539 3.9931 76.5884 3.9931H74.0124C73.8468 3.9931 73.7129 4.12336 73.7129 4.28405V14.1851C73.7129 14.3458 73.8468 14.476 74.0124 14.476Z"></path>
                            <path d="M78.2161 6.10352e-05H80.7921C80.9577 6.10352e-05 81.0922 0.130322 81.0922 0.291017V4.17997C81.0922 4.41005 81.3533 4.5464 81.5536 4.42405C82.3863 3.91397 83.138 3.71127 84.0663 3.71127C86.8163 3.71127 88.6729 5.88187 88.6729 9.09335C88.6729 12.3925 86.6824 14.7579 83.9098 14.7579C82.8379 14.7579 82.1367 14.5083 81.4653 13.8546C81.2791 13.6732 80.9583 13.8077 80.9583 14.0639V14.1845C80.9583 14.3452 80.8238 14.4754 80.6588 14.4754H78.2167C78.0511 14.4754 77.9172 14.3452 77.9172 14.1845V0.291017C77.9172 0.130322 78.0511 6.10352e-05 78.2161 6.10352e-05ZM80.9583 9.22361C80.9583 11.0466 81.8756 12.2616 83.2616 12.2616C84.6482 12.2616 85.5424 11.0899 85.5424 9.26682C85.5424 7.37865 84.6707 6.20692 83.2616 6.20692C81.875 6.20753 80.9583 7.42248 80.9583 9.22361Z"></path>
                            <path d="M92.6915 10.1354C92.4961 10.1354 92.3561 10.3131 92.4005 10.4982C92.6903 11.6991 93.5254 12.3492 94.7696 12.3492C95.5664 12.3492 96.147 12.1009 96.5664 11.5336C96.6224 11.4581 96.7156 11.4161 96.8117 11.4161H99.4498C99.6635 11.4161 99.8053 11.6255 99.7268 11.8184C98.9903 13.6257 97.0777 14.7584 94.6801 14.7584C91.3481 14.7584 89.1343 12.5446 89.1343 9.2461C89.1343 5.9695 91.3925 3.71185 94.6576 3.71185C96.9383 3.71185 98.6603 4.81907 99.4656 6.79428C99.8193 7.64219 99.9794 8.54671 100 9.83958C100.003 10.0021 99.868 10.1366 99.7 10.1366H92.6915V10.1354ZM96.3857 7.9648C96.5774 7.9648 96.7198 7.79132 96.679 7.60932C96.4502 6.5995 95.7417 6.05472 94.6357 6.05472C93.5376 6.05472 92.7779 6.59098 92.4529 7.58619C92.3914 7.77306 92.5369 7.96419 92.7396 7.96419H96.3857V7.9648Z"></path>
                        </svg>